<svg xmlns="http://www.w3.org/2000/svg" width="88" height="22" viewBox="0 0 88 22" fill="none">
    <path fill-rule="evenodd" clip-rule="evenodd" d="M9 19.9999C13.9706 19.9999 18 15.9704 18 10.9999C18 6.02931 13.9706 1.99988 9 1.99988C4.02944 1.99988 0 6.02931 0 10.9999C0 15.9704 4.02944 19.9999 9 19.9999ZM9.89717 17.1228C12.8893 16.6882 15.1875 14.1124 15.1875 10.9999C15.1875 7.88732 12.8893 5.31154 9.89717 4.87695C9.63033 4.83819 9.49691 4.81881 9.35895 4.87236C9.24821 4.91535 9.13128 5.01652 9.07282 5.11993C9 5.24875 9 5.4033 9 5.71238V16.2874C9 16.5965 9 16.751 9.07282 16.8798C9.13128 16.9832 9.24821 17.0844 9.35895 17.1274C9.4969 17.1809 9.63032 17.1616 9.89716 17.1228H9.89717Z" fill="white" fill-opacity="0.6"/>
    <path d="M29.504 16.9999C32.896 16.9999 35.232 14.6159 35.232 11.1759C35.232 7.68788 32.848 5.30388 29.392 5.30388H25.296V16.9999H29.504ZM29.2 7.19188C31.616 7.19188 33.072 8.69588 33.072 11.1759C33.072 13.6079 31.648 15.1119 29.312 15.1119H27.344V7.19188H29.2ZM37.8278 7.51188C38.4678 7.51188 38.9958 6.98388 38.9958 6.32788C38.9958 5.67188 38.4678 5.15988 37.8278 5.15988C37.1558 5.15988 36.6278 5.67188 36.6278 6.32788C36.6278 6.98388 37.1558 7.51188 37.8278 7.51188ZM36.8518 16.9999H38.8038V9.09588H36.8518V16.9999ZM43.1725 17.2079C44.4045 17.2079 45.4765 16.6479 45.8125 15.8319L45.9565 16.9999H47.6685V12.1999C47.6685 10.0079 46.3565 8.85588 44.2285 8.85588C42.0845 8.85588 40.6765 9.97588 40.6765 11.6879H42.3405C42.3405 10.8559 42.9805 10.3759 44.1325 10.3759C45.1245 10.3759 45.7645 10.8079 45.7645 11.8799V12.0559L43.3965 12.2319C41.5245 12.3759 40.4685 13.2879 40.4685 14.7439C40.4685 16.2319 41.4925 17.2079 43.1725 17.2079ZM43.8125 15.7359C42.9325 15.7359 42.4525 15.3839 42.4525 14.6639C42.4525 14.0239 42.9165 13.6239 44.1325 13.5119L45.7805 13.3839V13.7999C45.7805 15.0159 45.0125 15.7359 43.8125 15.7359ZM49.1381 12.8719C49.1381 15.1599 50.6101 16.8399 52.8501 16.8399C53.9861 16.8399 54.9621 16.3759 55.4581 15.6399V16.9519C55.4581 18.2639 54.5941 19.1119 53.2501 19.1119C52.0501 19.1119 51.2661 18.5039 51.1381 17.4799H49.1861C49.4261 19.5919 50.9781 20.8879 53.2501 20.8879C55.8101 20.8879 57.3941 19.2399 57.3941 16.5999V9.09588H55.5861L55.4741 10.1839C55.0101 9.33588 54.0821 8.83988 52.8981 8.83988C50.6421 8.83988 49.1381 10.5679 49.1381 12.8719ZM51.1061 12.8239C51.1061 11.5279 51.9381 10.5519 53.2341 10.5519C54.5941 10.5519 55.4101 11.4799 55.4101 12.8239C55.4101 14.1999 54.5781 15.1439 53.2341 15.1439C51.9541 15.1439 51.1061 14.1519 51.1061 12.8239ZM64.3743 9.06388C64.0543 8.98388 63.7823 8.95188 63.5103 8.95188C62.4543 8.95188 61.7023 9.47988 61.3663 10.2639L61.2543 9.11188H59.4143V16.9999H61.3663V13.1599C61.3663 11.6239 62.2463 10.8719 63.6543 10.8719H64.3743V9.06388ZM67.735 17.2079C68.967 17.2079 70.039 16.6479 70.375 15.8319L70.519 16.9999H72.231V12.1999C72.231 10.0079 70.919 8.85588 68.791 8.85588C66.647 8.85588 65.239 9.97588 65.239 11.6879H66.903C66.903 10.8559 67.543 10.3759 68.695 10.3759C69.687 10.3759 70.327 10.8079 70.327 11.8799V12.0559L67.959 12.2319C66.087 12.3759 65.031 13.2879 65.031 14.7439C65.031 16.2319 66.055 17.2079 67.735 17.2079ZM68.375 15.7359C67.495 15.7359 67.015 15.3839 67.015 14.6639C67.015 14.0239 67.479 13.6239 68.695 13.5119L70.343 13.3839V13.7999C70.343 15.0159 69.575 15.7359 68.375 15.7359ZM76.1006 16.9999V12.5199C76.1006 11.2399 76.8526 10.6319 77.7806 10.6319C78.7086 10.6319 79.3006 11.2239 79.3006 12.3279V16.9999H81.2526V12.5199C81.2526 11.2239 81.9726 10.6159 82.9166 10.6159C83.8446 10.6159 84.4526 11.2079 84.4526 12.3439V16.9999H86.3886V11.8319C86.3886 10.0079 85.3326 8.85588 83.4126 8.85588C82.2126 8.85588 81.2846 9.44788 80.8846 10.3599C80.4686 9.44788 79.6366 8.85588 78.4366 8.85588C77.3006 8.85588 76.5006 9.36788 76.1006 10.0239L75.9406 9.09588H74.1486V16.9999H76.1006Z" fill="white" fill-opacity="0.6"/>
</svg>