<svg width="20" height="20" viewBox="0 0 20 20" fill="none" xmlns="http://www.w3.org/2000/svg">
    <path d="M11 4.16663C11 3.61434 10.5523 3.16663 10 3.16663C9.44772 3.16663 9 3.61434 9 4.16663V13.419L4.87385 9.29286C4.48333 8.90234 3.85017 8.90234 3.45964 9.29286C3.06912 9.68339 3.06912 10.3166 3.45964 10.7071L9.28577 16.5332C9.31124 16.5592 9.33812 16.5838 9.36628 16.6069C9.43469 16.6631 9.50881 16.7088 9.58651 16.7441C9.70279 16.7969 9.83097 16.8282 9.96593 16.8327C9.99387 16.8337 10.0218 16.8335 10.0498 16.8321C10.1502 16.8272 10.2468 16.8074 10.3374 16.775C10.4724 16.7267 10.5991 16.6485 10.7072 16.5404L16.5405 10.7071C16.931 10.3166 16.931 9.68339 16.5405 9.29286C16.15 8.90234 15.5168 8.90234 15.1263 9.29286L11 13.4192V4.16663Z" fill="#1BC47D"></path>
</svg>