<svg xmlns="http://www.w3.org/2000/svg" width="65" height="22" viewBox="0 0 65 22" fill="none">
    <g clip-path="url(#clip0_610_1114)">
        <path d="M22 5V16.6926L23.5445 16.7041V11.1335H27.2702V9.66328H23.5445V6.4702H28.3903V5H22V5ZM31.1727 7.37758C31.7269 7.37758 32.1867 6.94112 32.1867 6.38979C32.1867 5.83847 31.7387 5.40201 31.1727 5.40201C30.6186 5.40201 30.1588 5.83847 30.1588 6.38979C30.1588 6.94112 30.6068 7.37758 31.1727 7.37758ZM30.3828 8.84778V16.7041H31.9273V8.84778H30.3828ZM37.6573 8.61806C35.6058 8.61806 34.1792 10.3065 34.1792 12.3165C34.1792 14.3266 35.6058 16.015 37.6573 16.015C38.6005 16.015 39.3669 15.6704 39.9328 15.0846V16.1298C39.9446 17.4277 38.8835 18.5074 37.5394 18.5189C37.5276 18.5189 37.5276 18.5189 37.5158 18.5189C37.0206 18.5189 36.5372 18.3351 36.1482 18.071L35.37 19.3803C37.2093 20.5404 39.6616 20.0236 40.8406 18.2318C41.2533 17.6 41.4773 16.8764 41.4773 16.1298V8.85926H39.9328V9.5599C39.3669 8.97412 38.6005 8.61806 37.6573 8.61806ZM35.7237 12.3165C35.7237 11.0646 36.7023 10.0883 37.8342 10.0883C38.966 10.0883 39.9328 11.076 39.9328 12.3165C39.9328 13.5685 38.9542 14.5333 37.8342 14.5333C36.7023 14.5333 35.7237 13.557 35.7237 12.3165ZM47.0422 10.0883C46.1226 10.0997 45.3798 10.8348 45.3916 11.7307V16.6926H43.8471V8.83629H45.3916V9.5599C45.8632 8.95115 46.5942 8.60657 47.3842 8.61806C48.4689 8.61806 49.306 9.13492 49.7776 9.93894C50.3199 9.12344 51.2395 8.62954 52.2299 8.61806C53.9866 8.61806 55.0831 9.99636 55.0831 11.7078V16.6926H53.5504V11.7307C53.5504 10.8348 52.8194 10.0997 51.8998 10.0883C50.9802 10.0997 50.2374 10.8348 50.2492 11.7307V16.6926H48.6929V11.7307C48.6929 10.8348 47.9619 10.0997 47.0422 10.0883ZM63.3126 9.73219C62.6052 9.00858 61.6149 8.60657 60.5891 8.61806C58.29 8.61806 56.663 10.5132 56.663 12.7645C56.663 15.0272 58.29 16.9109 60.5891 16.9109C61.6149 16.9109 62.5934 16.5089 63.3126 15.7967V16.6926H64.8571V8.83629H63.3126V9.73219ZM58.2075 12.7645C58.2075 11.2713 59.3865 10.0768 60.766 10.0768C62.1336 10.0883 63.3126 11.2713 63.3126 12.7645C63.3126 14.2576 62.1336 15.4407 60.7542 15.4407C59.3983 15.4522 58.2075 14.2691 58.2075 12.7645Z" fill="white" fill-opacity="0.6"/>
        <path fill-rule="evenodd" clip-rule="evenodd" d="M5.375 4.25C4.87772 4.25 4.40081 4.44754 4.04917 4.79917C3.69754 5.15081 3.5 5.62772 3.5 6.125C3.5 6.62228 3.69754 7.09919 4.04917 7.45082C4.40081 7.80246 4.87772 8 5.375 8H7.25V4.25H5.375ZM7.25 14.75H5.375C4.87772 14.75 4.40081 14.9475 4.04917 15.2992C3.69754 15.6508 3.5 16.1277 3.5 16.625C3.5 17.1223 3.69754 17.5992 4.04917 17.9508C4.40081 18.3025 4.87772 18.5 5.375 18.5C5.87228 18.5 6.34919 18.3025 6.70082 17.9508C7.05246 17.5992 7.25 17.1223 7.25 16.625V14.75ZM3.25366 14C3.16156 14.0744 3.07303 14.154 2.98851 14.2385C2.35558 14.8714 2 15.7299 2 16.625C2 17.5201 2.35558 18.3786 2.98851 19.0115C3.62145 19.6444 4.47989 20 5.375 20C6.27011 20 7.12855 19.6444 7.76149 19.0115C8.39442 18.3786 8.75 17.5201 8.75 16.625V14.1812C8.93336 14.3038 9.12873 14.4083 9.33344 14.4931C9.74292 14.6627 10.1818 14.75 10.625 14.75C11.0682 14.75 11.5071 14.6627 11.9166 14.4931C12.326 14.3235 12.6981 14.0749 13.0115 13.7615C13.3249 13.4481 13.5735 13.076 13.7431 12.6666C13.9127 12.2571 14 11.8182 14 11.375C14 10.9318 13.9127 10.4929 13.7431 10.0834C13.5735 9.67397 13.3249 9.30191 13.0115 8.98851C12.9272 8.90423 12.8387 8.82464 12.7463 8.75C12.8387 8.67537 12.9272 8.59577 13.0115 8.51149C13.3249 8.19809 13.5735 7.82603 13.7431 7.41656C13.9127 7.00708 14 6.56821 14 6.125C14 5.68179 13.9127 5.24292 13.7431 4.83344C13.5735 4.42397 13.3249 4.05191 13.0115 3.73851C12.6981 3.42512 12.326 3.17652 11.9166 3.00691C11.5071 2.8373 11.0682 2.75 10.625 2.75H8H5.375C4.47989 2.75 3.62145 3.10558 2.98851 3.73851C2.35558 4.37145 2 5.22989 2 6.125C2 7.02011 2.35558 7.87855 2.98851 8.51149C3.07303 8.596 3.16156 8.67557 3.25366 8.75C3.16156 8.82444 3.07303 8.904 2.98851 8.98851C2.35558 9.62145 2 10.4799 2 11.375C2 12.2701 2.35558 13.1285 2.98851 13.7615C3.07303 13.846 3.16156 13.9256 3.25366 14ZM5.375 9.5C4.87772 9.5 4.40081 9.69754 4.04917 10.0492C3.69754 10.4008 3.5 10.8777 3.5 11.375C3.5 11.8723 3.69754 12.3492 4.04917 12.7008C4.40081 13.0525 4.87772 13.25 5.375 13.25H7.25V11.375V9.5H5.375ZM8.75 11.375C8.75 11.6212 8.7985 11.865 8.89273 12.0925C8.98695 12.32 9.12506 12.5267 9.29917 12.7008C9.47329 12.8749 9.67998 13.013 9.90747 13.1073C10.135 13.2015 10.3788 13.25 10.625 13.25C10.8712 13.25 11.115 13.2015 11.3425 13.1073C11.57 13.013 11.7767 12.8749 11.9508 12.7008C12.1249 12.5267 12.263 12.32 12.3573 12.0925C12.4515 11.865 12.5 11.6212 12.5 11.375C12.5 11.1288 12.4515 10.885 12.3573 10.6575C12.263 10.43 12.1249 10.2233 11.9508 10.0492C11.7767 9.87507 11.57 9.73695 11.3425 9.64273C11.115 9.5485 10.8712 9.5 10.625 9.5C10.3788 9.5 10.135 9.5485 9.90747 9.64273C9.67998 9.73695 9.47329 9.87506 9.29917 10.0492C9.12506 10.2233 8.98695 10.43 8.89273 10.6575C8.7985 10.885 8.75 11.1288 8.75 11.375ZM10.625 8C10.8712 8 11.115 7.9515 11.3425 7.85727C11.57 7.76305 11.7767 7.62493 11.9508 7.45082C12.1249 7.27672 12.263 7.07002 12.3573 6.84253C12.4515 6.61505 12.5 6.37123 12.5 6.125C12.5 5.87877 12.4515 5.63495 12.3573 5.40747C12.263 5.17998 12.1249 4.97328 11.9508 4.79917C11.7767 4.62507 11.57 4.48695 11.3425 4.39273C11.115 4.2985 10.8712 4.25 10.625 4.25H8.75V8H10.625Z" fill="white" fill-opacity="0.6"/>
    </g>
    <defs>
        <clipPath id="clip0_610_1114">
            <rect width="65" height="22" fill="white"/>
        </clipPath>
    </defs>
</svg>