<svg width="20" height="20" viewBox="0 0 20 20" fill="none" xmlns="http://www.w3.org/2000/svg">
    <path d="M17.3667 3.84166C16.941 3.41583 16.4357 3.07803 15.8795 2.84757C15.3232 2.6171 14.7271 2.49847 14.125 2.49847C13.5229 2.49847 12.9268 2.6171 12.3705 2.84757C11.8143 3.07803 11.309 3.41583 10.8833 3.84166L10 4.725L9.11666 3.84166C8.25692 2.98192 7.09086 2.49892 5.875 2.49892C4.65914 2.49892 3.49307 2.98192 2.63333 3.84166C1.77359 4.70141 1.29059 5.86747 1.29059 7.08333C1.29059 8.29919 1.77359 9.46525 2.63333 10.325L10 17.6917L17.3667 10.325C17.7925 9.89937 18.1303 9.39401 18.3608 8.83779C18.5912 8.28158 18.7099 7.6854 18.7099 7.08333C18.7099 6.48126 18.5912 5.88508 18.3608 5.32887C18.1303 4.77265 17.7925 4.26729 17.3667 3.84166Z" fill="#FF6871"></path>
    <path d="M17.3667 3.84166L16.6594 4.5486L16.6597 4.54893L17.3667 3.84166ZM14.125 2.49847L14.125 3.49847L14.125 2.49847ZM10.8833 3.84166L11.5904 4.54877L11.5906 4.5486L10.8833 3.84166ZM10 4.725L9.29289 5.4321C9.68342 5.82263 10.3166 5.82263 10.7071 5.4321L10 4.725ZM9.11666 3.84166L8.40956 4.54877L8.40956 4.54877L9.11666 3.84166ZM2.63333 10.325L1.92622 11.0321L1.92622 11.0321L2.63333 10.325ZM10 17.6917L9.29289 18.3988C9.68342 18.7893 10.3166 18.7893 10.7071 18.3988L10 17.6917ZM17.3667 10.325L16.6597 9.61772L16.6596 9.61789L17.3667 10.325ZM18.0739 3.13472C17.5554 2.61598 16.9398 2.20448 16.2623 1.92373L15.4967 3.7714C15.9315 3.95158 16.3266 4.21568 16.6594 4.5486L18.0739 3.13472ZM16.2623 1.92373C15.5847 1.64298 14.8584 1.49847 14.125 1.49847L14.125 3.49847C14.5957 3.49847 15.0618 3.59122 15.4967 3.7714L16.2623 1.92373ZM14.125 1.49847C13.3916 1.49847 12.6653 1.64298 11.9877 1.92373L12.7533 3.7714C13.1882 3.59122 13.6543 3.49847 14.125 3.49847V1.49847ZM11.9877 1.92373C11.3102 2.20448 10.6946 2.61598 10.1761 3.13472L11.5906 4.5486C11.9234 4.21568 12.3185 3.95158 12.7533 3.7714L11.9877 1.92373ZM10.1762 3.13456L9.29289 4.01789L10.7071 5.4321L11.5904 4.54877L10.1762 3.13456ZM10.7071 4.01789L9.82377 3.13456L8.40956 4.54877L9.29289 5.4321L10.7071 4.01789ZM9.82377 3.13456C8.77649 2.08728 7.35608 1.49892 5.875 1.49892L5.875 3.49892C6.82564 3.49892 7.73735 3.87656 8.40956 4.54877L9.82377 3.13456ZM5.875 1.49892C4.39392 1.49892 2.9735 2.08728 1.92622 3.13456L3.34044 4.54877C4.01264 3.87656 4.92435 3.49892 5.875 3.49892L5.875 1.49892ZM1.92622 3.13456C0.878944 4.18184 0.290588 5.60225 0.290588 7.08333L2.29059 7.08333C2.29059 6.13268 2.66823 5.22098 3.34044 4.54877L1.92622 3.13456ZM0.290588 7.08333C0.290588 8.56441 0.878944 9.98482 1.92622 11.0321L3.34044 9.61789C2.66823 8.94568 2.29059 8.03397 2.29059 7.08333L0.290588 7.08333ZM18.0736 11.0323C18.5923 10.5138 19.0038 9.89815 19.2846 9.22058L17.4369 8.455C17.2567 8.88986 16.9926 9.28496 16.6597 9.61772L18.0736 11.0323ZM19.2846 9.22058C19.5653 8.54301 19.7099 7.81676 19.7099 7.08333H17.7099C17.7099 7.55404 17.6171 8.02014 17.4369 8.455L19.2846 9.22058ZM19.7099 7.08333C19.7099 6.34989 19.5653 5.62364 19.2846 4.94607L17.4369 5.71166C17.6171 6.14652 17.7099 6.61262 17.7099 7.08333H19.7099ZM19.2846 4.94607C19.0038 4.2685 18.5923 3.65289 18.0736 3.13439L16.6597 4.54893C16.9926 4.8817 17.2567 5.2768 17.4369 5.71166L19.2846 4.94607ZM1.92622 11.0321L9.29289 18.3988L10.7071 16.9846L3.34044 9.61789L1.92622 11.0321ZM10.7071 18.3988L18.0738 11.0321L16.6596 9.61789L9.29289 16.9846L10.7071 18.3988Z" fill="#FF6871"></path>
</svg>